<?xml version="1.0" encoding="UTF-8"?>
<!DOCTYPE svg PUBLIC "-//W3C//DTD SVG 1.1//EN" "http://www.w3.org/Graphics/SVG/1.1/DTD/svg11.dtd">
<!-- Creator: CorelDRAW 2018 (64 Bit Versão de avaliação) -->
<svg xmlns="http://www.w3.org/2000/svg" xml:space="preserve" width="1080px" height="1080px" version="1.1" style="shape-rendering:geometricPrecision; text-rendering:geometricPrecision; image-rendering:optimizeQuality; fill-rule:evenodd; clip-rule:evenodd"
viewBox="0 0 1080 1080"
 xmlns:xlink="http://www.w3.org/1999/xlink">
 <defs>
  <style type="text/css">
   <![CDATA[
    .str2 {stroke:#1F75B1;stroke-width:1.43;stroke-miterlimit:10}
    .str1 {stroke:#246DB2;stroke-width:1.43;stroke-miterlimit:10}
    .str0 {stroke:#FECC00;stroke-width:2.36;stroke-miterlimit:22.9256}
    .fil4 {fill:#FECC00}
    .fil13 {fill:#026C3F}
    .fil1 {fill:#2F3868}
    .fil3 {fill:#FECC00;fill-rule:nonzero}
    .fil6 {fill:#1F75B1;fill-rule:nonzero}
    .fil5 {fill:#246DB2;fill-rule:nonzero}
    .fil0 {fill:url(#id2)}
    .fil9 {fill:url(#id3)}
    .fil7 {fill:url(#id4)}
    .fil12 {fill:url(#id5)}
    .fil8 {fill:url(#id6)}
    .fil2 {fill:url(#id7)}
    .fil10 {fill:url(#id8)}
    .fil11 {fill:url(#id9)}
   ]]>
  </style>
    <clipPath id="id0">
     <path d="M475.31 410.95c55.9,0 101.25,45.4 101.25,101.45 0,1.16 -0.05,2.29 -0.05,3.45l-187.95 -55.78c17.74,-29.44 49.93,-49.12 86.75,-49.12l0 0z"/>
    </clipPath>
    <clipPath id="id1">
     <path d="M648.75 610.42c-10.1,-15.66 -23.51,-30.21 -39.68,-43.41l-42.91 12.58 41.21 48.2 41.38 -17.37zm-53.98 -54.19c-21.28,-14.91 -46.39,-27.71 -74.37,-37.73l-7.59 1.16 41.11 47.31 40.85 -10.74zm-109.76 -48.47c-22.88,-5.82 -47.1,-9.94 -72.4,-12.04l15.29 18.84 58.18 -5.59 -1.07 -1.21zm-91.88 -13.3c-6.79,-0.26 -13.67,-0.44 -20.56,-0.44 -13.31,0 -26.36,0.53 -39.14,1.61l20.55 27.21 58.1 -5.77 -18.95 -22.61zm103.68 105.85l51.3 -16.43 43.8 49.64 -50.86 17.14 -44.24 -50.35zm-19.75 45.02l40.57 6.58 -38.43 -47.17 -52.37 16.51 50.23 24.08zm-9.48 -57.24l-44.33 -55.41 -57.02 8.02 49.16 63.41 52.19 -16.02zm29.32 -65.47l-57.2 7.56 44.06 54.24 54.25 -13.87 -41.11 -47.93z"/>
    </clipPath>
  <linearGradient id="id2" gradientUnits="userSpaceOnUse" x1="412.43" y1="687.01" x2="421.52" y2="753.1">
   <stop offset="0" style="stop-opacity:1; stop-color:#9FC127"/>
   <stop offset="1" style="stop-opacity:1; stop-color:#42853E"/>
  </linearGradient>
  <linearGradient id="id3" gradientUnits="userSpaceOnUse" x1="453.77" y1="454.37" x2="510.66" y2="657.06">
   <stop offset="0" style="stop-opacity:1; stop-color:#1193CE"/>
   <stop offset="1" style="stop-opacity:1; stop-color:#2D3F74"/>
  </linearGradient>
  <linearGradient id="id4" gradientUnits="userSpaceOnUse" x1="487.21" y1="286.51" x2="487.21" y2="573.51">
   <stop offset="0" style="stop-opacity:1; stop-color:#FFD600"/>
   <stop offset="0.278431" style="stop-opacity:1; stop-color:#FFD600"/>
   <stop offset="1" style="stop-opacity:1; stop-color:#E63D24"/>
  </linearGradient>
  <linearGradient id="id5" gradientUnits="userSpaceOnUse" x1="383.61" y1="481.27" x2="388.37" y2="623.96">
   <stop offset="0" style="stop-opacity:1; stop-color:#A8C823"/>
   <stop offset="1" style="stop-opacity:1; stop-color:#468C3C"/>
  </linearGradient>
  <linearGradient id="id6" gradientUnits="userSpaceOnUse" x1="495.48" y1="404.25" x2="469.69" y2="518.81">
   <stop offset="0" style="stop-opacity:1; stop-color:#FFD600"/>
   <stop offset="1" style="stop-opacity:1; stop-color:#E74623"/>
  </linearGradient>
  <linearGradient id="id7" gradientUnits="userSpaceOnUse" x1="697.35" y1="733.49" x2="685.11" y2="674">
   <stop offset="0" style="stop-opacity:1; stop-color:#2C427F"/>
   <stop offset="0.211765" style="stop-opacity:1; stop-color:#2C427F"/>
   <stop offset="1" style="stop-opacity:1; stop-color:#1C9FDA"/>
  </linearGradient>
  <linearGradient id="id8" gradientUnits="userSpaceOnUse" x1="658.32" y1="396.39" x2="719.35" y2="480.24">
   <stop offset="0" style="stop-opacity:1; stop-color:#D1D700"/>
   <stop offset="1" style="stop-opacity:1; stop-color:#0A6337"/>
  </linearGradient>
  <linearGradient id="id9" gradientUnits="userSpaceOnUse" x1="581.31" y1="261.11" x2="483.52" y2="631.31">
   <stop offset="0" style="stop-opacity:1; stop-color:#ABC922"/>
   <stop offset="1" style="stop-opacity:1; stop-color:#01693F"/>
  </linearGradient>
 </defs>
 <g id="Camada_x0020_1">
  <metadata id="CorelCorpID_0Corel-Layer"/>
  <g id="_3242753812096">
   <path class="fil0" d="M280.94 746.81l-12.57 0 0 -53.41 12.57 0 0 53.41zm265.49 -53.51l-39.84 0 0 53.51 12.63 0 0 -19.56 10.24 0 18.82 19.56 17.3 0 -20.85 -19.56 1.7 0c3.1,0 6.58,-0.53 8.88,-2.76 2.29,-2.22 2.85,-5.57 2.85,-8.59l0 -11.15c0,-3.03 -0.56,-6.43 -2.85,-8.66 -2.3,-2.23 -5.77,-2.79 -8.88,-2.79zm-53.78 0l-51.26 0 0 53.51 51.7 0 0 -10.92 -39.06 0 0 -11.34 23.27 0 0 -11.02 -23.27 0 0 -9.21 38.62 0 0 -11.02zm-60.24 0l-12.97 0 -19.16 37.92 -20 -37.92 -13.77 0 29.16 53.51 9.03 0 27.71 -53.51zm-74.82 0l-11.9 0 0 31.91c0,1.01 0.02,2.01 0.07,3.02 -0.6,-0.65 -1.22,-1.26 -1.87,-1.85l-35.15 -33.08 -9.41 0 0 53.51 11.9 0 0 -32.78c0,-0.9 -0.02,-1.8 -0.06,-2.69 0.58,0.64 1.17,1.27 1.79,1.88l35.95 33.59 8.68 0 0 -53.51zm161.63 10.92l0 12.48 23.29 0c0.55,0 2.26,-0.06 2.69,-0.49 0.45,-0.46 0.52,-2.19 0.52,-2.78l0 -5.98c0,-0.68 -0.07,-2.13 -0.59,-2.68 -0.46,-0.49 -2,-0.55 -2.62,-0.55l-23.29 0z"/>
   <path class="fil1" d="M663.56 699.2l7.19 0 -7.19 4.55 0 -4.55zm0 -5.31l12.17 -6.97 14.44 0 -16.71 10.56 -9.9 0 0 -3.59zm14.94 -8.56l17.93 -10.27 6.65 3.7 0 0 -10.58 6.69 -13.43 0 -0.57 -0.12zm25.95 -5.81l8.04 4.47 0 0 -1.99 1.46 -15.23 0 9.18 -5.93zm10.11 5.62l0.56 0.31 -0.65 0 -0.32 0 0.41 -0.31zm3.2 1.78l5.78 3.21 0 0 -8.36 7.35 -17.35 0 14.32 -10.56 5.61 0zm7.72 4.29l9 5 0 1.27 -16 0 7 -6.27zm9 18.07l-5.66 0 5.66 -6.33 0 6.33zm-5.24 28.69c-10.33,5.11 -21.66,7.64 -32.93,7.64l9.03 -10.09 25.59 0 -1.69 2.45zm-37.49 7.5c-3.42,-0.2 -6.81,-0.64 -10.16,-1.31 -3.92,-0.79 -7.75,-1.9 -11.47,-3.33l5.92 -5.31 24.81 0 -9.1 9.95zm-24.54 -5.83c-1.23,-0.54 -2.45,-1.11 -3.65,-1.72l0 -2.4 8.33 0 -4.68 4.12zm-3.65 -16.75l22.7 0 -12.29 10.81 -10.41 0 0 -10.81zm0 -11.93l12.36 0 -12.36 9.13 0 -9.13zm68.63 22.74l-25.22 0 9.67 -10.81 17.84 0 0 7.51 -2.29 3.3zm2.29 -12.34l-16.47 0 9.31 -10.4 7.16 0 0 10.4zm-41.49 -34.44l15.52 0 -14.32 10.56 -17.57 0 16.37 -10.56zm-19.02 12.28l17.89 0 -13.66 10.08 -14.64 0 0 -3.36 10.41 -6.72zm21.53 0l-13.67 10.08 19.92 0 11.48 -10.08 -17.73 0zm-15.94 11.76l-14.11 10.4 22.55 0 11.84 -10.4 -20.28 0zm-1.48 22.74l12.05 -10.81 22.28 0 -9.89 10.81 -24.44 0zm13.76 -12.34l11.61 -10.4 19.88 0 -9.52 10.4 -21.97 0zm13.48 -12.08l11.25 -10.08 17.52 0 -9.23 10.08 -19.54 0z"/>
   <path class="fil2" d="M663.56 699.2l7.19 0 -7.19 4.55 0 -4.55zm17.98 33.23l0.03 0 0.04 0 0.03 0 0.04 0 0.03 0 0.04 0 0.04 0c8.52,0 16.69,-0.91 24.25,-2.57l6.37 -6.97 -22.28 0 -10.61 9.52c0.67,0.01 1.35,0.02 2.02,0.02zm52.94 -14.19l0 -7.28 -7.16 0 -9.31 10.4 11.32 0c1.81,-0.98 3.52,-2.02 5.15,-3.12zm0 -8.96l0 -6.33 -5.66 6.33 5.66 0zm0 -11.8l0 -1.27 -9 -5 -7 6.27 16 0zm-8.11 25.41c-4.48,2.2 -9.41,4.07 -14.7,5.55l4.97 -5.55 9.73 0zm-50.77 9.37c-4.13,-0.21 -8.15,-0.64 -12.04,-1.27l0 -8.1 22.7 0 -10.66 9.37zm-12.04 -38.37l12.17 -6.97 14.44 0 -16.71 10.56 -9.9 0 0 -3.59zm14.94 -8.56l17.93 -10.27 6.65 3.7 0 0 -10.58 6.69 -13.43 0 -0.57 -0.12zm25.95 -5.81l8.04 4.47 0 0 -1.99 1.46 -15.23 0 9.18 -5.93zm10.11 5.62l0.56 0.31 -0.65 0 -0.32 0 0.41 -0.31zm3.2 1.78l5.78 3.21 0 0 -8.36 7.35 -17.35 0 14.32 -10.56 5.61 0zm-54.2 24.04l12.36 0 -12.36 9.13 0 -9.13zm29.43 -24.04l15.52 0 -14.32 10.56 -17.57 0 16.37 -10.56zm-19.02 12.28l17.89 0 -13.66 10.08 -14.64 0 0 -3.36 10.41 -6.72zm21.53 0l-13.67 10.08 19.92 0 11.48 -10.08 -17.73 0zm-15.94 11.76l-14.11 10.4 22.55 0 11.84 -10.4 -20.28 0zm12.28 10.4l11.61 -10.4 19.88 0 -9.52 10.4 -21.97 0zm13.48 -12.08l11.25 -10.08 17.52 0 -9.23 10.08 -19.54 0z"/>
   <path class="fil3" d="M572.24 744.5l0 0c7.27,5.27 18.87,11.59 32.64,11.71l0 0c9.05,0 17.33,-2.46 23.58,-6.68l0 0c6.37,-4.21 10.96,-10.65 10.96,-18.17l0 0c0,-3.63 -1.15,-7.16 -3.06,-9.97l0 0c-2.93,-4.36 -7.52,-7.4 -12.75,-9.74l0 0c-5.1,-2.25 -11.09,-3.77 -17.59,-4.94l0 0 -0.25 0 0 0c-6.88,-1.17 -12.62,-3.05 -15.94,-5.15l0 0c-1.65,-1.06 -2.8,-2.13 -3.44,-3.07l0 0c-0.64,-0.94 -0.89,-1.87 -0.89,-3.28l0 0c0,-2.46 1.4,-5.05 4.84,-7.4l0 0c3.45,-2.34 8.55,-3.98 14.28,-3.98l0 0c7.78,0 14.02,3.51 20.52,7.5l0 0c3.06,1.89 7.14,1.07 9.05,-1.76l0 0c2.04,-2.69 1.15,-6.44 -1.78,-8.31l0 0c-6.5,-3.87 -15.55,-9.37 -27.79,-9.37l0 0c-8.28,0 -16.06,2.22 -22.05,6.2l0 0c-5.86,3.98 -10.2,10.07 -10.2,17.12l0 0c0,3.51 1.02,6.81 2.93,9.62l0 0c2.81,4.1 7.01,7.05 11.86,9.16l0 0c4.84,2.11 10.45,3.51 16.44,4.59l0 0 0.26 0 0 0c7.52,1.28 13.76,3.28 17.46,5.5l0 0c1.91,1.17 3.06,2.34 3.82,3.53l0 0c0.77,1.18 1.15,2.23 1.15,3.75l0 0c0,2.93 -1.66,5.88 -5.48,8.45l0 0c-3.83,2.58 -9.56,4.34 -15.93,4.34l0 0c-9.06,0.11 -18.74,-4.8 -24.35,-9.04l0 0c-2.8,-2.11 -7.01,-1.76 -9.31,0.82l0 0c-2.16,2.6 -1.78,6.46 1.02,8.57zm126.71 -72.61c-12.24,0 -23.46,4.8 -31.23,12.53 -7.91,7.73 -12.62,18.03 -12.62,29.63 0,11.59 4.71,22.02 12.62,29.63 7.77,7.61 18.99,12.53 31.23,12.53 0,0 0,0 0,0 11.72,0 22.94,-4.92 30.46,-12.53 7.9,-7.61 12.88,-18.04 12.88,-29.63 0,-11.6 -4.98,-21.9 -12.88,-29.63 -7.52,-7.73 -18.74,-12.53 -30.46,-12.53zm20.14 62.53c-5.36,5.28 -12.49,8.44 -20.14,8.44 -8.16,0 -15.3,-3.16 -20.65,-8.44 -5.36,-5.03 -8.67,-12.41 -8.67,-20.37 0,-7.97 3.31,-15.34 8.67,-20.5 5.35,-5.27 12.49,-8.31 20.65,-8.31 7.65,0 14.78,3.04 20.14,8.31 5.22,5.16 8.66,12.53 8.66,20.5 0,7.96 -3.44,15.34 -8.66,20.37zm54.68 21.79c0,0 0,0 0.13,0 0,0 0,0 0.25,0l41.3 0c3.7,0 7.01,-2.93 7.01,-6.44 0,-3.63 -3.31,-6.56 -7.01,-6.56l-34.54 0 0 -62.54c0,-3.52 -3.19,-6.44 -7.14,-6.44 -3.95,0 -7.01,2.92 -7.01,6.44l0 69.1c0,3.51 3.06,6.44 7.01,6.44z"/>
   <path class="fil4 str0" d="M659.58 639.8c3.94,0 7.13,3.12 7.13,6.98 0,3.85 -3.19,6.97 -7.13,6.97 -3.94,0 -7.14,-3.12 -7.14,-6.97 0,-3.86 3.2,-6.98 7.14,-6.98z"/>
   <path class="fil4 str0" d="M667.62 654.27c3.01,0 5.44,2.38 5.44,5.32 0,2.93 -2.43,5.31 -5.44,5.31 -3,0 -5.43,-2.38 -5.43,-5.31 0,-2.94 2.43,-5.32 5.43,-5.32z"/>
   <path class="fil4 str0" d="M673.85 666.31c1.92,0 3.47,1.52 3.47,3.39 0,1.88 -1.55,3.4 -3.47,3.4 -1.92,0 -3.47,-1.52 -3.47,-3.4 0,-1.87 1.55,-3.39 3.47,-3.39z"/>
   <path class="fil4 str0" d="M701.1 659.96c1.91,0 3.47,1.52 3.47,3.4 0,1.88 -1.56,3.4 -3.47,3.4 -1.92,0 -3.48,-1.52 -3.48,-3.4 0,-1.88 1.56,-3.4 3.48,-3.4z"/>
   <path class="fil4 str0" d="M740.77 639.8c-3.94,0 -7.14,3.12 -7.14,6.98 0,3.85 3.2,6.97 7.14,6.97 3.94,0 7.13,-3.12 7.13,-6.97 0,-3.86 -3.19,-6.98 -7.13,-6.98z"/>
   <path class="fil4 str0" d="M732.72 654.27c-3,0 -5.43,2.38 -5.43,5.32 0,2.93 2.43,5.31 5.43,5.31 3.01,0 5.44,-2.38 5.44,-5.31 0,-2.94 -2.43,-5.32 -5.44,-5.32z"/>
   <path class="fil4 str0" d="M726.5 666.31c-1.92,0 -3.48,1.52 -3.48,3.39 0,1.88 1.56,3.4 3.48,3.4 1.92,0 3.47,-1.52 3.47,-3.4 0,-1.87 -1.55,-3.39 -3.47,-3.39z"/>
   <path class="fil4 str0" d="M701.1 646.41c3,0 5.44,2.38 5.44,5.31 0,2.94 -2.44,5.32 -5.44,5.32 -3.01,0 -5.44,-2.38 -5.44,-5.32 0,-2.93 2.43,-5.31 5.44,-5.31z"/>
   <path class="fil4 str0" d="M701.1 629.48c3.94,0 7.13,3.13 7.13,6.98 0,3.85 -3.19,6.97 -7.13,6.97 -3.94,0 -7.14,-3.12 -7.14,-6.97 0,-3.85 3.2,-6.98 7.14,-6.98z"/>
   <path class="fil5 str1" d="M268.53 779.26l0 -23.22 23.2 0 0 3.12 -19.17 0 0 6.45 11.71 0 0 3.08 -11.71 0 0 7.38 19.34 0 0 3.19 -23.37 0zm34.65 -15.24c0.09,0.55 0.15,1.11 0.19,1.68 0.04,0.58 0.07,1.15 0.07,1.72l0 11.84 -3.44 0 0 -19.07 2.86 0 14.51 12.46c0.42,0.35 0.83,0.74 1.22,1.16 0.38,0.43 0.76,0.91 1.15,1.45 -0.11,-0.58 -0.19,-1.15 -0.24,-1.74 -0.05,-0.57 -0.08,-1.19 -0.08,-1.82l0 -11.51 3.44 0 0 19.07 -2.55 0 -14.82 -12.63c-0.52,-0.47 -0.95,-0.91 -1.32,-1.33 -0.39,-0.43 -0.72,-0.85 -0.99,-1.28zm29.02 15.24l0 -19.07 19.92 0 0 2.84 -16.18 0 0 4.89 9.75 0 0 2.83 -9.75 0 0 5.72 16.37 0 0 2.79 -20.11 0zm41.35 -16.27l-10.53 0 0 6.14 10.53 0c0.83,0 1.39,-0.12 1.68,-0.39 0.29,-0.27 0.43,-0.78 0.43,-1.54l0 -2.29c0,-0.7 -0.14,-1.2 -0.45,-1.49 -0.3,-0.29 -0.86,-0.43 -1.66,-0.43zm-14.28 16.27l0 -19.07 15.92 0c1.46,0 2.52,0.3 3.17,0.87 0.65,0.58 0.97,1.52 0.97,2.82l0 4.26c0,1.29 -0.32,2.22 -0.97,2.79 -0.65,0.58 -1.71,0.86 -3.17,0.86l-2.64 0 8.73 7.47 -4.98 0 -7.89 -7.47 -5.39 0 0 7.47 -3.75 0zm47.68 -16.23l-15.62 0 0 13.35 15.62 0 0 -5.18 -8.07 0 0 -2.59 11.81 0 0 6.15c0,1.75 -0.34,2.93 -1.02,3.56 -0.67,0.62 -1.95,0.94 -3.83,0.94l-13.4 0c-1.89,0 -3.16,-0.31 -3.84,-0.93 -0.67,-0.63 -1.02,-1.81 -1.02,-3.57l0 -10.04c0,-1.75 0.35,-2.93 1.03,-3.57 0.68,-0.64 1.96,-0.96 3.83,-0.96l13.4 0c1.84,0 3.11,0.32 3.81,0.95 0.7,0.62 1.04,1.73 1.04,3.31l0 0.55 -3.74 0.61 0 -2.58zm15.54 16.23l-3.71 0 0 -19.03 3.71 0 0 19.03z"/>
   <path class="fil5 str1" d="M427.91 779.26l11.43 -19.07 3.42 0 11.71 19.07 -4.05 0 -2.58 -4.46 -13.68 0 -2.52 4.46 -3.73 0zm7.83 -7.21l10.5 0 -5.26 -9.06 -5.24 9.06z"/>
   <path class="fil6 str2" d="M500.49 759.2l-17.05 0 0 6.48 15.17 0c2.15,0 3.61,0.38 4.41,1.14 0.78,0.77 1.18,2.21 1.18,4.33l0 2.61c0,2.15 -0.39,3.6 -1.15,4.35 -0.79,0.77 -2.25,1.15 -4.44,1.15l-14.05 0c-2.18,0 -3.67,-0.38 -4.47,-1.16 -0.79,-0.77 -1.19,-2.21 -1.19,-4.34l0 -0.63 3.75 -0.83 0 3.73 17.94 0 0 -6.99 -15.14 0c-2.18,0 -3.66,-0.38 -4.44,-1.16 -0.78,-0.76 -1.17,-2.2 -1.17,-4.33l0 -2.02c0,-2.13 0.39,-3.57 1.17,-4.35 0.78,-0.76 2.26,-1.14 4.44,-1.14l12.83 0c2.15,0 3.63,0.38 4.43,1.13 0.81,0.75 1.22,2.08 1.22,3.97l0 0.48 -3.44 0.95 0 -3.37zm17.34 17.18l16.51 0 0 -13.35 -16.51 0 0 13.35zm-3.75 -11.66c0,-1.75 0.35,-2.93 1.04,-3.57 0.67,-0.64 1.95,-0.96 3.82,-0.96l14.29 0c1.86,0 3.14,0.32 3.83,0.96 0.68,0.64 1.02,1.82 1.02,3.57l0 10.04c0,1.75 -0.33,2.93 -1,3.56 -0.68,0.62 -1.96,0.94 -3.85,0.94l-14.29 0c-1.89,0 -3.18,-0.31 -3.85,-0.93 -0.68,-0.63 -1.01,-1.81 -1.01,-3.57l0 -10.04zm32.54 14.54l0 -19.07 3.74 0 0 16.19 15.37 0 0 2.88 -19.11 0zm21.98 0l11.43 -19.07 3.43 0 11.7 19.07 -4.04 0 -2.58 -4.46 -13.68 0 -2.53 4.46 -3.73 0zm7.83 -7.21l10.51 0 -5.27 -9.06 -5.24 9.06zm39.07 -9.06l-10.53 0 0 6.14 10.53 0c0.84,0 1.39,-0.12 1.68,-0.39 0.3,-0.27 0.44,-0.78 0.44,-1.54l0 -2.29c0,-0.7 -0.14,-1.2 -0.45,-1.49 -0.3,-0.29 -0.86,-0.43 -1.67,-0.43zm-14.27 16.27l0 -19.07 15.91 0c1.47,0 2.53,0.3 3.18,0.87 0.65,0.58 0.96,1.52 0.96,2.82l0 4.26c0,1.29 -0.31,2.22 -0.96,2.79 -0.65,0.58 -1.71,0.86 -3.18,0.86l-2.63 0 8.73 7.47 -4.98 0 -7.89 -7.47 -5.4 0 0 7.47 -3.74 0z"/>
   <path class="fil4 str0" d="M659.58 796.89c3.94,0 7.13,-3.13 7.13,-6.98 0,-3.85 -3.19,-6.98 -7.13,-6.98 -3.94,0 -7.14,3.13 -7.14,6.98 0,3.85 3.2,6.98 7.14,6.98z"/>
   <path class="fil4 str0" d="M667.62 774.69c3.01,0 5.44,-2.38 5.44,-5.32 0,-2.94 -2.43,-5.32 -5.44,-5.32 -3,0 -5.43,2.38 -5.43,5.32 0,2.94 2.43,5.32 5.43,5.32z"/>
   <path class="fil4 str0" d="M673.85 762.65c1.92,0 3.47,-1.52 3.47,-3.39 0,-1.88 -1.55,-3.4 -3.47,-3.4 -1.92,0 -3.47,1.52 -3.47,3.4 0,1.87 1.55,3.39 3.47,3.39z"/>
   <path class="fil4 str0" d="M701.1 768.99c1.91,0 3.47,-1.52 3.47,-3.39 0,-1.88 -1.56,-3.4 -3.47,-3.4 -1.92,0 -3.48,1.52 -3.48,3.4 0,1.87 1.56,3.39 3.48,3.39z"/>
   <path class="fil4 str0" d="M740.77 789.16c-3.94,0 -7.14,-3.13 -7.14,-6.98 0,-3.85 3.2,-6.98 7.14,-6.98 3.94,0 7.13,3.13 7.13,6.98 0,3.85 -3.19,6.98 -7.13,6.98z"/>
   <path class="fil4 str0" d="M732.72 774.69c-3,0 -5.43,-2.38 -5.43,-5.32 0,-2.94 2.43,-5.32 5.43,-5.32 3.01,0 5.44,2.38 5.44,5.32 0,2.94 -2.43,5.32 -5.44,5.32z"/>
   <path class="fil4 str0" d="M726.5 762.65c-1.92,0 -3.48,-1.52 -3.48,-3.39 0,-1.88 1.56,-3.4 3.48,-3.4 1.92,0 3.47,1.52 3.47,3.4 0,1.87 -1.55,3.39 -3.47,3.39z"/>
   <path class="fil4 str0" d="M701.1 782.55c3,0 5.44,-2.38 5.44,-5.31 0,-2.94 -2.44,-5.32 -5.44,-5.32 -3.01,0 -5.44,2.38 -5.44,5.32 0,2.93 2.43,5.31 5.44,5.31z"/>
   <path class="fil4 str0" d="M701.1 799.47c3.94,0 7.13,-3.12 7.13,-6.97 0,-3.85 -3.19,-6.98 -7.13,-6.98 -3.94,0 -7.14,3.13 -7.14,6.98 0,3.85 3.2,6.97 7.14,6.97z"/>
   <path class="fil7" d="M347.61 450.18c4.32,-0.36 8.34,-0.38 11.99,0l5.57 0 -0.03 -0.05 12.69 0c9.64,-14.94 40.4,-53.74 97.48,-53.74 63.95,0 115.78,51.93 115.78,115.99 0,2.6 -0.09,5.17 -0.26,7.72l-0.01 1.51 3.09 3.81 46.69 48.09 15.98 -29.81 -40.14 -18.61 42.38 -1.41 -49.07 -9.49 92.34 -14.99 -94.04 -5.66 48.72 -14.16 -54.51 1.66 89.61 -38.3 -96.09 17.82 45.15 -28.15 -46.34 14.99 71.89 -57.13 -83.65 39.97 33.23 -35.31 -45.83 27.98 58.09 -76.95 -74.28 62.46 25.9 -47.63 -33.05 37.14 33.56 -86.44 -52.65 76.45 10.91 -47.47 -24.7 47.47 9.71 -93.61 -31.35 87.44 -2.56 -52.3 -10.56 48.14 -14.31 -91.11 -6.3 91.94 -14.49 -47.63 2.22 53.46 -39.7 -86.27 18.23 93.6 -28.11 -43.47 14.82 45.14 -57.92 -69.62 40.54 80.78 -36.28 -32.98 29.55 44.14 -79.73 -56.38 64.4 72.79 -48.21 -24.99 36.63 32.31 -88.25 -32.31 65.12 43.17 10.15 0z"/>
   <path class="fil8" d="M475.31 405.66c58.84,0 106.53,47.78 106.53,106.72l0 0.9c-18.34,-18.45 -39.57,-42.17 -60.07,-63.15l-80.98 0 0 0 -52.01 0c19.34,-26.93 50.89,-44.47 86.53,-44.47z"/>
   <g style="clip-path:url(#id0)">
    <image x="388.56" y="410.95" width="188" height="104.9" xlink:href="Inversol -marcus_Images\Inversol -marcus_ImgID1.png"/>
   </g>
   <path class="fil9" d="M566.2 579.59l52.38 -15.36 39.91 40.24 -51.08 23.31 -41.21 -48.19zm-69.38 20.71l51.31 -16.4 43.76 49.6 -52.17 19.71 -42.9 -52.91zm-40.06 37.69l60.87 13.92 -38.45 -47.19 -52.38 16.51 29.96 16.76zm-59.01 -31.16l-9.33 0.05 -53.97 -62.09 17.58 -2.63 45.72 64.67zm69.81 -18.72l-44.32 -55.42 -57 7.99 49.15 63.41 52.17 -15.98zm29.36 -65.52l-57.22 7.57 44.1 54.27 54.21 -13.88 -41.09 -47.96zm15.92 -2.94l55.51 -8.31 40.87 41.12 -55.29 14.51 -41.09 -47.32zm-53.89 -61.42l59.27 0 41.41 42.38 -57.97 5.79 -42.71 -48.17zm-76.66 0.01l57.79 0 46.03 50.73 -58.19 5.58 -45.63 -56.31zm-76.34 3.79l58.68 -2.83 47.48 57.87 -58.08 5.79 -48.08 -60.83z"/>
   <g style="clip-path:url(#id1)">
    <image x="333.43" y="494.02" width="315.32" height="157.89" xlink:href="Inversol -marcus_Images\Inversol -marcus_ImgID2.png"/>
   </g>
   <path class="fil10" d="M682.08 294.33c-6.32,144.76 -148.93,134.35 -41.48,279.18 39.2,-29.82 66.22,-72.68 79.36,-130.41l-37.88 -148.77z"/>
   <path class="fil11" d="M682.08 294.33l0.16 0.07c55.74,61.64 73.01,152.54 36.64,233.15 -49.22,109.09 -178.01,158.01 -287.67,109.27 -59.32,-26.37 -100.87,-75.92 -118.74,-133.13 34.16,86.23 121.36,137.71 218.34,133.43 110.88,-7.22 184.83,-92.08 189.15,-194.02 -20.62,52.52 -48.26,94.56 -87.55,119.19 -71.43,-119.86 83.14,-163.75 49.67,-267.96z"/>
   <path class="fil12" d="M303.78 462.12l19.14 -0.91c16.18,103.91 73.9,148.7 149.87,171.69 -72.47,-14.06 -133.16,-60.65 -160.32,-129.21 1.1,3.52 2.29,7.02 3.57,10.48 -6.16,-16.68 -10.36,-34.26 -12.26,-52.05zm112.15 167.18l0 0 -0.07 -0.03 0.07 0.03zm-63.57 -52.11c-0.33,-0.39 -0.66,-0.79 -0.99,-1.19 0.33,0.4 0.66,0.8 0.99,1.19zm-5.63 -7.08c-0.34,-0.45 -0.68,-0.9 -1.02,-1.35 0.34,0.45 0.68,0.9 1.02,1.35zm-1.8 -2.41c-0.34,-0.47 -0.69,-0.93 -1.03,-1.4 -0.55,-0.76 -1.1,-1.53 -1.65,-2.3 -0.4,-0.57 -0.8,-1.14 -1.19,-1.72l3.87 5.42zm-4.35 -6.1c-0.39,-0.58 -0.78,-1.15 -1.17,-1.73 0.39,0.58 0.78,1.15 1.17,1.73zm-1.66 -2.46c-0.37,-0.56 -0.74,-1.12 -1.1,-1.68 0.36,0.56 0.73,1.12 1.1,1.68zm-1.64 -2.51c-0.36,-0.56 -0.72,-1.11 -1.07,-1.67 0.35,0.56 0.71,1.11 1.07,1.67zm-1.59 -2.49c-0.37,-0.59 -0.73,-1.18 -1.1,-1.77 0.37,0.59 0.73,1.18 1.1,1.77zm-1.43 -2.32c-2.33,-3.81 -4.53,-7.69 -6.61,-11.63 2.08,3.94 4.28,7.82 6.61,11.63zm-6.78 -11.95c-0.36,-0.7 -0.73,-1.4 -1.09,-2.1 0.36,0.7 0.73,1.4 1.09,2.1zm-1.36 -2.64c-0.36,-0.71 -0.72,-1.42 -1.07,-2.13 0.35,0.71 0.71,1.42 1.07,2.13zm-1.24 -2.48c-0.37,-0.75 -0.74,-1.51 -1.1,-2.27 0.36,0.76 0.73,1.52 1.1,2.27zm-1.2 -2.48c-1.99,-4.17 -3.84,-8.4 -5.55,-12.68 1.71,4.28 3.56,8.51 5.55,12.68zm-5.57 -12.72c-0.31,-0.78 -0.62,-1.57 -0.92,-2.36 0.3,0.79 0.61,1.58 0.92,2.36zm-1.11 -2.84c-0.29,-0.76 -0.58,-1.52 -0.86,-2.29 0.28,0.77 0.57,1.53 0.86,2.29l0 0z"/>
   <rect class="fil13" x="268.04" y="787.61" width="357.21" height="8.35"/>
  </g>
 </g>
</svg>
